HIERARCHY
ROOT Hips
{
  OFFSET -33.9132 29.2015 117.021
  CHANNELS 6 Xposition Yposition Zposition Zrotation Xrotation Yrotation
  JOINT LeftUpLeg
  {
    OFFSET 8.64259 1.95398 -2.38835
    CHANNELS 3 Zrotation Xrotation Yrotation
    JOINT LeftLeg
    {
      OFFSET 43.7702 0 0
      CHANNELS 3 Zrotation Xrotation Yrotation
      JOINT LeftFoot
      {
        OFFSET 40.6238 0 0
        CHANNELS 3 Zrotation Xrotation Yrotation
        JOINT LeftToeBase
        {
          OFFSET 12.7242 0 0
          CHANNELS 3 Zrotation Xrotation Yrotation
          End Site
          {
            OFFSET 0 0 0
          }
        }
      }
    }
  }
  JOINT RightUpLeg
  {
    OFFSET -8.2249 1.95398 -2.59336
    CHANNELS 3 Zrotation Xrotation Yrotation
    JOINT RightLeg
    {
      OFFSET 43.5653 0 0
      CHANNELS 3 Zrotation Xrotation Yrotation
      JOINT RightFoot
      {
        OFFSET 40.6238 0 0
        CHANNELS 3 Zrotation Xrotation Yrotation
        JOINT RightToeBase
        {
          OFFSET 12.7242 0 0
          CHANNELS 3 Zrotation Xrotation Yrotation
          End Site
          {
            OFFSET 0 0 0
          }
        }
      }
    }
  }
  JOINT Spine
  {
    OFFSET 0.165834 0.87714 6.61349
    CHANNELS 3 Zrotation Xrotation Yrotation
    JOINT Spine1
    {
      OFFSET 7.38963 1.71661e-005 0
      CHANNELS 3 Zrotation Xrotation Yrotation
      JOINT Spine2
      {
        OFFSET 11.9445 1.14441e-005 0
        CHANNELS 3 Zrotation Xrotation Yrotation
        JOINT Spine3
        {
          OFFSET 14.7254 4.19617e-005 0
          CHANNELS 3 Zrotation Xrotation Yrotation
          JOINT Spine4
          {
            OFFSET 10.9679 0 0
            CHANNELS 3 Zrotation Xrotation Yrotation
            JOINT RightShoulder
            {
              OFFSET 2.46616 -1.6653 3.69651
              CHANNELS 3 Zrotation Xrotation Yrotation
              JOINT RightArm
              {
                OFFSET 13.0012 0 0
                CHANNELS 3 Zrotation Xrotation Yrotation
                JOINT RightForeArm
                {
                  OFFSET 28.7848 1.62311e-005 0
                  CHANNELS 3 Zrotation Xrotation Yrotation
                  JOINT RightHand
                  {
                    OFFSET 26.5688 1.62095e-005 0
                    CHANNELS 3 Zrotation Xrotation Yrotation
                    End Site
                    {
                      OFFSET 0 0 0
                    }
                  }
                }
              }
            }
            JOINT LeftShoulder
            {
              OFFSET 2.38034 -1.29275 -3.7523
              CHANNELS 3 Zrotation Xrotation Yrotation
              JOINT LeftArm
              {
                OFFSET 16.3182 6.07031e-005 0
                CHANNELS 3 Zrotation Xrotation Yrotation
                JOINT LeftForeArm
                {
                  OFFSET 27.0901 0 0
                  CHANNELS 3 Zrotation Xrotation Yrotation
                  JOINT LeftHand
                  {
                    OFFSET 24.5451 1.51738e-005 0
                    CHANNELS 3 Zrotation Xrotation Yrotation
                    End Site
                    {
                      OFFSET 0 0 0
                    }
                  }
                }
              }
            }
            JOINT Neck
            {
              OFFSET 5.0226 -0.0266342 0
              CHANNELS 3 Zrotation Xrotation Yrotation
              JOINT Head
              {
                OFFSET 6.69364 2.86102e-005 0
                CHANNELS 3 Zrotation Xrotation Yrotation
                End Site
                {
                  OFFSET 0 0 0
                }
              }
            }
          }
        }
      }
    }
  }
}
MOTION
Frames:	9
Frame Time:	0.0416667
11.8431 96.7053 -3.49583 -98.6416 -41.0769 -102.815 -179.691 17.7912 82.9667 -10.4134 23.1297 -0.946895 60.4568 0.499196 -4.28467 24.307 -8.07628 12.1128 172.506 -14.6257 87.4011 -29.0156 -45.3119 -5.54902 76.001 -13.3309 -5.55143 19.5623 1.68395 7.68047 1.92673 8.26875 -89.6866 10.3357 3.98184 0.276996 -1.32918 3.99018 0.101184 -23.9082 3.71424 1.46252 -3.8956 3.71424 1.46252 88.843 -25.8659 -110.875 42.8787 4.18008 -19.165 -5.41064 -43.594 -5.51663 -23.0443 4.31116 -26.8803 -87.1842 -53.9889 83.5915 -18.7373 -13.325 14.2787 -10.2164 19.7141 -0.0805108 3.14003 -0.39441 -14.7897 -0.511827 -3.17825 1.49999 -1.05305 -3.4622 -7.70398 
4.38133 96.5569 3.30153 -99.3748 -34.4461 -104.932 -179.249 17.0382 80.8726 -22.4943 22.1524 -0.687972 59.0704 -0.834979 -4.36809 22.3668 -7.14593 8.12527 172.528 -16.2087 84.6939 -41.205 -47.1351 -12.9535 67.5745 -5.52246 -4.12062 26.9507 -2.35981 12.4945 2.17326 8.2685 -89.5354 10.3318 4.54229 0.529009 -1.33127 4.56115 0.328152 -23.9216 4.17295 1.87197 -3.90891 4.17296 1.87197 90.1066 -24.9166 -108.638 48.778 3.41471 -11.1324 -5.36849 -42.9988 -5.49092 -17.9329 1.67322 -16.2263 -88.0246 -56.7347 82.8351 -16.2433 -14.7165 11.0404 -9.65829 16.9323 -0.0128125 3.89852 -0.583807 -15.672 0.492585 -3.98415 1.71418 -2.54359 -4.20158 -8.96119 
-2.51331 96.5083 8.51107 -99.7153 -27.983 -106.178 -177.338 12.8612 79.8064 -29.3828 18.2911 -2.01138 68.7548 5.16806 -2.45675 15.1145 -10.647 6.77062 172.466 -8.89652 80.1709 -55.3184 -43.8844 -12.048 54.4165 4.04079 2.2013 32.38 -2.29417 3.39077 1.72967 8.24424 -89.1538 10.3635 3.83317 1.34717 -1.30231 3.88874 1.17693 -23.8666 3.25106 2.43773 -3.85396 3.25105 2.43771 88.8564 -26.9689 -110.335 50.117 4.81393 -4.80259 -5.57723 -45.8311 -5.6214 -10.8881 0.651662 -12.8228 -87.7985 -54.104 82.7288 -16.5032 -13.5611 4.52863 -10.4011 17.5657 -0.0150811 3.48987 -0.443554 -15.019 0.857237 -3.57685 -1.08279 -2.31572 -3.40276 -7.53343 
-8.4489 97.1709 11.8182 -98.7272 -20.0567 -103.666 -176.059 6.9499 81.252 -29.2321 12.0498 -2.42796 74.0557 8.46952 -1.41161 14.5378 -10.2444 5.53942 176.378 2.90986 81.6865 -64.4711 -28.4519 -8.91783 60.672 -0.493137 0.660245 27.2177 -0.217336 3.56782 1.3209 8.23112 -89.2136 10.3937 2.9916 1.29938 -1.2743 3.04589 1.16636 -23.8244 2.4628 2.13867 -3.81177 2.46279 2.13867 89.155 -27.3706 -109.542 49.6908 5.71993 -2.48058 -5.76232 -48.1357 -5.7448 -12.7439 1.14698 -16.0528 -88.0712 -52.2831 82.0225 -15.0795 -13.729 -6.70946 -10.8747 19.036 -0.0166001 3.38471 -0.151318 -11.7868 1.28723 -2.51577 -2.51309 -2.15696 -2.14098 -6.46554 
-14.2025 98.3356 13.869 -97.607 -12.8906 -98.4358 -174.645 0.389575 85.0692 -25.3583 6.98913 -1.95402 76.1204 8.73998 -3.44354 19.0969 -11.0142 11.5086 178.841 13.0601 87.5662 -59.2895 -16.3164 -5.97488 67.3715 -5.732 -2.8736 25.9285 0.582291 2.67604 0.780398 8.17405 -89.605 10.524 1.73601 0.631422 -1.14589 1.76208 0.55439 -23.6869 1.46597 1.12404 -3.67429 1.46596 1.12403 90.0377 -26.8371 -107.949 48.4098 6.0769 -3.0034 -5.69677 -47.34 -5.70037 -15.7275 2.06064 -20.6915 -87.9331 -49.9797 81.8214 -12.6978 -15.521 -12.5573 -10.3599 16.9917 -0.017806 4.22512 -0.358699 -13.3228 -0.754137 -0.858696 -3.19211 -1.18719 -0.492209 -5.11206 
-20.113 98.5374 15.3548 -96.1631 -7.194 -93.8773 -173.189 -4.51555 88.0422 -21.7695 2.3193 -1.45006 78.4789 9.3149 -4.31205 20.8015 -11.32 13.8676 179.406 20.1589 93.0392 -42.7913 -14.8666 -3.01106 65.1967 -3.98454 -1.42229 25.5054 0.597311 3.2689 0.294432 8.11387 -89.8761 10.6457 0.643407 0.187937 -1.02511 0.651088 0.159432 -23.5612 0.557202 0.372622 -3.54853 0.557195 0.37263 89.8808 -28.6003 -107.547 45.7772 6.96825 -3.58964 -5.68228 -47.1622 -5.69068 -19.2911 2.73881 -21.8003 -87.2141 -46.2238 82.2448 -10.0798 -18.1268 -15.7523 -9.38433 14.416 -0.0188539 7.66349 -1.25006 -18.3711 -0.840091 0.580772 -5.42824 -0.787048 1.25404 -2.22797 
-26.6887 97.7571 16.4554 -94.9315 -5.24459 -91.41 -172.016 -9.8515 90.1028 -17.8044 -0.193353 -1.11768 82.2265 11.0651 -5.76218 19.6859 -12.8085 15.1025 179.516 22.0711 95.5562 -21.1981 -15.147 -0.545567 62.8922 -2.54578 -1.47769 22.4293 1.42215 4.90531 -0.0892646 8.0644 -90.039 10.7456 -0.195656 -0.0591354 -0.925355 -0.198074 -0.0504779 -23.4606 -0.168857 -0.115206 -3.44791 -0.168812 -0.115207 90.4355 -29.7347 -105.993 46.6732 6.90702 -2.51138 -4.99587 -37.2659 -5.28398 -22.3873 2.7723 -19.5545 -87.0895 -43.3581 81.9117 -9.48379 -20.2945 -22.0346 -8.84818 10.7616 -0.0196053 10.1681 -1.80473 -19.8667 -0.257264 0.256381 -6.60813 -0.804991 1.13816 -1.28553 
-34.7626 96.4776 17.5515 -94.8846 -7.55091 -89.8289 -170.693 -15.9152 92.6722 -14.9211 1.96886 0.00355081 83.0058 13.3874 -3.20691 23.2885 -8.85335 12.2568 179.746 21.7814 95.6995 -12.1303 -13.5391 -0.287219 64.3068 -3.33666 -2.1198 19.4676 2.48349 5.46813 -0.489717 8.07298 -90.2567 10.725 -1.09352 -0.410892 -0.945497 -1.11054 -0.362368 -23.4828 -0.91948 -0.720565 -3.47018 -0.919489 -0.720563 90.3543 -30.9945 -105.692 45.6778 8.39982 1.76908 -5.10171 -38.9735 -5.33558 -17.6783 2.07426 -19.2823 -87.8352 -43.947 80.8187 -12.3929 -21.8781 -30.7333 -8.07627 11.1866 -0.0202882 11.226 -2.16807 -21.371 1.0515 -0.861949 -6.97702 -1.92126 0.178 -1.62951 
-44.8273 95.9697 18.3621 -95.8025 -9.78251 -87.1329 -167.26 -19.4477 98.5626 -18.0164 5.82113 1.10272 77.5311 11.1607 -1.41197 38.3643 -1.92086 18.7185 178.318 21.5481 97.3597 -19.6942 -11.9276 1.27327 60.3159 0.364286 -1.21315 23.4198 1.69173 2.60473 -0.62758 8.07073 -90.5863 10.7265 -1.52 -1.02558 -0.943845 -1.56363 -0.957699 -23.4804 -1.14155 -1.43498 -3.46774 -1.14153 -1.43497 90.4361 -31.4158 -105.38 45.4841 9.54293 6.01246 -5.32844 -42.4253 -5.46724 -8.56003 0.760393 -15.9282 -88.5035 -45.3139 80.035 -17.354 -19.1028 -34.3534 -7.8235 21.4779 -0.0215574 10.2794 -2.46484 -25.086 1.3682 -1.84445 -7.85786 -2.91847 -0.631979 -1.23597 
